<svg width="256" height="256" viewBox="0 0 256 256" xmlns="http://www.w3.org/2000/svg">
  <rect x="0" y="0" width="256" height="256" rx="64" fill="#E11D48" />
  <!-- Fork -->
  <path
    d="M78 52c-3.3 0-6 2.7-6 6v40c0 4.4 3.6 8 8 8h2v72c0 4.4 3.6 8 8 8s8-3.6 8-8V106h2c4.4 0 8-3.6 8-8V58c0-3.3-2.7-6-6-6s-6 2.7-6 6v26h-4V58c0-3.3-2.7-6-6-6s-6 2.7-6 6v26h-4V58c0-3.3-2.7-6-6-6z"
    fill="#F9FAFB"
  />
  <!-- Knife -->
  <path
    d="M156 44c-4.4 0-8 3.6-8 8v60l-20 40c-2 4-0.4 8.8 3.6 10.8 4 2 8.8 0.4 10.8-3.6l12.6-25.2V212c0 4.4 3.6 8 8 8s8-3.6 8-8V52c0-4.4-3.6-8-8-8h-6z"
    fill="#F9FAFB"
  />
</svg>
